<svg xmlns="http://www.w3.org/2000/svg" width="32" height="32" viewBox="0 0 32 32">
  <g fill="none" fill-rule="evenodd">
    <rect width="32" height="32"/>
    <path fill="#000" d="M10.9767385,27.0777436 C21.1945846,27.0777436 26.7830974,18.6125128 26.7830974,11.2713846 C26.7830974,11.0309744 26.7830974,10.7913846 26.7666872,10.5534359 C27.8538667,9.7665641 28.7925333,8.79261538 29.5383795,7.67753846 C28.5250462,8.12717949 27.4485333,8.42174359 26.3474051,8.55138462 C27.5067897,7.85723077 28.3748923,6.76512821 28.7900718,5.4785641 C27.6996103,6.12594872 26.5065846,6.58215385 25.2626872,6.82748718 C23.1588923,4.58994872 19.6397128,4.48246154 17.4021744,6.58625641 C15.9597128,7.94338462 15.3476103,9.96512821 15.7956103,11.8941538 C11.3287385,11.6701538 7.16627692,9.55979487 4.34617436,6.08984615 C2.87171282,8.62851282 3.62494359,11.8752821 6.06596923,13.505641 C5.18227692,13.4793846 4.31745641,13.2406154 3.54453333,12.8098462 L3.54453333,12.8804103 C3.54535385,15.5249231 5.40955897,17.8026667 8.00155897,18.3261538 C7.18350769,18.5493333 6.32525128,18.5821538 5.49243077,18.4221538 C6.22104615,20.6843077 8.30596923,22.2350769 10.6838154,22.2793846 C8.71622564,23.8260513 6.28586667,24.6654359 3.78330256,24.6621538 C3.34186667,24.6613333 2.90043077,24.6342564 2.46145641,24.5817436 C5.00258462,26.2129231 7.95807179,27.0777436 10.9767385,27.073641"/>
  </g>
</svg>
