<svg width="91" height="50" xmlns="http://www.w3.org/2000/svg" xmlns:xlink="http://www.w3.org/1999/xlink"><defs><path id="a" d="M0 .482h12.848v20.486H0z"/><path id="c" d="M.29.394h7.925v7.67H.29z"/></defs><g fill="none" fill-rule="evenodd"><g transform="translate(0 16.226)"><mask id="b" fill="#fff"><use xlink:href="#a"/></mask><path d="M.959 13.937l.863-5.37H0l.735-4.762h1.821L3.1.482h7.318l-.542 3.323h2.972l-.735 4.762H9.14l-.798 5.05c-.192 1.246.287 1.63 1.246 1.63a4.4 4.4 0 0 0 1.438-.256l-.863 5.434c-.767.287-1.917.543-3.42.543-4.218 0-6.647-1.758-5.784-7.031" fill="#000" mask="url(#b)"/></g><path d="M15.785 13h7.318l-1.598 10.035c1.183-1.981 3.005-3.515 5.721-3.515 3.004 0 5.338 2.078 4.538 7.127l-1.597 10.099h-7.32l1.44-9.173c.223-1.501-.225-2.237-1.375-2.237-1.31 0-1.886.736-2.142 2.43l-1.406 8.98h-7.319L15.785 13zM40.096 26.487h4.443c.095-1.374-.448-2.46-1.918-2.46-1.055 0-2.014.67-2.525 2.46zm-.384 3.388c.032 1.278.576 2.589 2.365 2.589 1.343 0 1.886-.767 2.141-1.599h6.808c-.735 4.06-4.09 6.328-9.108 6.328-4.986 0-9.3-2.14-9.3-7.798 0-6.008 4.346-9.875 10.099-9.875 5.848 0 9.268 3.611 8.34 9.715l-.095.64h-11.25zM66.673 19.52c2.11 0 3.548 1.022 4.123 3.132 1.342-1.95 3.355-3.132 5.625-3.132 3.228 0 5.273 2.173 4.602 6.488l-1.694 10.738h-7.287l1.47-9.428c.224-1.31-.255-1.95-1.182-1.95-1.12 0-1.63.767-1.822 1.982l-1.47 9.396h-7.223l1.47-9.396c.224-1.342-.256-1.982-1.182-1.982-1.182 0-1.63.767-1.822 1.982l-1.47 9.396h-7.319l1.726-10.994c.383-2.461.607-4.155.671-5.72h7.191c0 .798-.064 2.044-.192 3.003 1.087-1.757 3.133-3.515 5.785-3.515" fill="#000"/><g transform="translate(81.452 29.129)"><mask id="d" fill="#fff"><use xlink:href="#c"/></mask><path d="M.29 4.23C.29 2.12 1.888.393 4.157.393c2.333 0 4.058 1.726 4.058 3.835 0 2.141-1.693 3.836-4.026 3.836-2.27 0-3.9-1.695-3.9-3.836" fill="#000" mask="url(#d)"/></g><path d="M0 0h91v50H0z"/></g></svg>