<svg width="109px" height="30px" viewBox="0 0 109 30" version="1.1" xmlns="http://www.w3.org/2000/svg" xmlns:xlink="http://www.w3.org/1999/xlink">
  <g id="Page-1" stroke="none" stroke-width="1" fill="none" fill-rule="evenodd">
    <path d="M1.12,21.42 L2.127,14.867 L0,14.867 L0.858,9.057 L2.985,9.057 L3.619,5 L12.164,5 L11.53,9.056 L15,9.056 L14.142,14.867 L10.672,14.867 L9.739,21.03 C9.515,22.55 10.075,23.019 11.194,23.019 C11.767852,23.0131723 12.3363199,22.9075997 12.874,22.707 L11.866,29.337 C10.97,29.688 9.627,30 7.873,30 C2.948,30 0.112,27.855 1.119,21.42 L1.12,21.42 Z M19.515,0 L28.351,0 L26.422,12.256 C27.85,9.836 30.049,7.962 33.329,7.962 C36.957,7.962 39.773,10.499 38.809,16.666 L36.879,29 L28.043,29 L29.779,17.798 C30.049,15.964 29.509,15.066 28.119,15.066 C26.538,15.066 25.843,15.964 25.535,18.032 L23.837,29 L15,29 L19.515,0 Z M49.252,16.673 L54.748,16.673 C54.866,14.962 54.194,13.609 52.376,13.609 C51.071,13.609 49.885,14.445 49.252,16.673 Z M48.777,20.89 C48.817,22.481 49.489,24.112 51.703,24.112 C53.364,24.112 54.036,23.157 54.353,22.123 L62.774,22.123 C61.864,27.175 57.714,30 51.506,30 C45.338,30 40,27.335 40,20.293 C40,12.813 45.377,8 52.494,8 C59.73,8 63.96,12.496 62.814,20.094 L62.695,20.89 L48.777,20.89 Z M81.427,8 C83.987,8 85.733,9.247 86.431,11.818 C88.061,9.442 90.505,8 93.26,8 C97.178,8 99.661,10.65 98.846,15.91 L96.79,29 L87.945,29 L89.73,17.506 C90.001,15.909 89.42,15.13 88.295,15.13 C86.937,15.13 86.316,16.065 86.083,17.546 L84.298,29 L75.53,29 L77.315,17.546 C77.586,15.909 77.005,15.13 75.88,15.13 C74.444,15.13 73.901,16.065 73.668,17.546 L71.884,29 L63,29 L65.095,15.597 C65.56,12.597 65.832,10.532 65.91,8.623 L74.638,8.623 C74.638,9.597 74.561,11.117 74.405,12.286 C75.725,10.143 78.207,8 81.427,8 Z M100,25.5 C100,23.025 101.815,21 104.391,21 C107.041,21 109,23.025 109,25.5 C109,28.013 107.077,30 104.427,30 C101.851,30 100,28.013 100,25.5 Z" id="Shape" fill="#000000"></path>
  </g>
</svg>
